<?xml version="1.0" standalone="no"?>
<!DOCTYPE svg PUBLIC "-//W3C//DTD SVG 1.1//EN" "http://www.w3.org/Graphics/SVG/1.1/DTD/svg11.dtd" >
<svg xmlns="http://www.w3.org/2000/svg" xmlns:xlink="http://www.w3.org/1999/xlink" version="1.1">
<metadata>
Created by FontForge 20170924 at Fri Jun 28 06:11:24 2019
 By www-data
</metadata>
<defs>
<font id="SebNeue-Regular" horiz-adv-x="528" >
  <font-face 
    font-family="Seb Neue"
    font-weight="400"
    font-stretch="normal"
    units-per-em="1000"
    panose-1="0 0 0 0 0 0 0 0 0 0"
    ascent="750"
    descent="-250"
    x-height="474"
    cap-height="630"
    bbox="-72 -251 1043 920"
    underline-thickness="50"
    underline-position="-100"
    stemh="68"
    stemv="92"
    unicode-range="U+000D-FB02"
  />
<missing-glyph horiz-adv-x="250" 
 />
    <glyph glyph-name=".notdef" horiz-adv-x="250" 
 />
    <glyph glyph-name="uni0000" horiz-adv-x="0" 
 />
    <glyph glyph-name="uni0000" horiz-adv-x="0" 
 />
    <glyph glyph-name="uni000D" unicode="&#xd;" horiz-adv-x="250" 
 />
    <glyph glyph-name="space" unicode=" " horiz-adv-x="219" 
 />
    <glyph glyph-name="uni0000.1" horiz-adv-x="0" 
 />
    <glyph glyph-name="uni000D.1" horiz-adv-x="250" 
 />
    <glyph glyph-name="A" unicode="A" horiz-adv-x="611" 
d="M119 0h-97l236 630h96l234 -630h-98l-59 166h-254zM200 235h207c-35 101 -69 200 -101 303h-2c-35 -103 -69 -202 -104 -303z" />
    <glyph glyph-name="B" unicode="B" horiz-adv-x="531" 
d="M74 630h185c106 0 207 -40 207 -161c0 -72 -46 -120 -114 -136c81 -15 133 -72 133 -156c0 -128 -126 -177 -235 -177h-176v630zM166 71h70c77 0 153 26 153 117c0 87 -79 107 -151 107h-72v-224zM166 365h72c64 0 134 21 134 98s-65 96 -130 96h-76v-194z" />
    <glyph glyph-name="C" unicode="C" horiz-adv-x="547" 
d="M360 62c47 0 92 8 135 31l20 -69c-49 -27 -110 -33 -165 -33c-194 0 -314 135 -314 324c0 191 118 325 313 325c60 0 113 -8 168 -37l-21 -68c-42 22 -87 33 -134 33c-155 0 -229 -108 -229 -253c0 -143 75 -253 227 -253z" />
    <glyph glyph-name="D" unicode="D" horiz-adv-x="624" 
d="M74 630h201c189 0 307 -112 307 -301c0 -212 -128 -329 -338 -329h-170v630zM166 558v-486h69c169 0 251 90 251 257c0 141 -88 229 -229 229h-91z" />
    <glyph glyph-name="E" unicode="E" horiz-adv-x="501" 
d="M461 0h-387v630h384v-72h-292v-197h266v-71h-266v-218h295v-72z" />
    <glyph glyph-name="F" unicode="F" horiz-adv-x="479" 
d="M74 0v630h374v-72h-282v-212h260v-71h-260v-275h-92z" />
    <glyph glyph-name="G" unicode="G" horiz-adv-x="602" 
d="M360 640c61 0 121 -8 177 -37l-21 -65c-45 23 -93 34 -144 34c-159 0 -235 -108 -235 -258c0 -143 77 -256 230 -256c27 0 68 3 92 14v190h-121v69h210v-306c-60 -27 -120 -34 -185 -34c-194 0 -321 131 -321 323c0 195 121 326 318 326z" />
    <glyph glyph-name="H" unicode="H" horiz-adv-x="624" 
d="M74 0v630h92v-268h291v268h92v-630h-92v290h-291v-290h-92z" />
    <glyph glyph-name="I" unicode="I" horiz-adv-x="241" 
d="M74 630h92v-630h-92v630z" />
    <glyph glyph-name="J" unicode="J" horiz-adv-x="355" 
d="M284 630v-503c0 -95 -56 -127 -141 -127h-118v70h99c49 0 70 23 70 71v421h-118v68h208z" />
    <glyph glyph-name="K" unicode="K" horiz-adv-x="557" 
d="M166 0h-92v630h92v-298l260 298h115l-245 -275l268 -355h-115l-218 296l-65 -69v-227z" />
    <glyph glyph-name="L" unicode="L" horiz-adv-x="450" 
d="M74 0v630h92v-558h273v-72h-365z" />
    <glyph glyph-name="M" unicode="M" horiz-adv-x="805" 
d="M150 0h-86l56 630h117c9 -27 17 -56 28 -85c49 -143 98 -285 137 -429h3c7 31 15 59 24 90c28 92 57 183 88 275l49 149h118l57 -630h-88c-15 183 -32 362 -39 545h-2c-51 -187 -113 -362 -173 -545h-74c-63 183 -129 358 -173 545h-3c-3 -39 -5 -78 -8 -117
c-8 -144 -19 -284 -31 -428z" />
    <glyph glyph-name="N" unicode="N" horiz-adv-x="642" 
d="M74 630h86c80 -120 179 -265 259 -398c23 -35 44 -70 64 -105h2c-7 101 -4 203 -4 304v199h86v-630h-86c-84 125 -175 254 -254 387c-25 40 -48 83 -69 126h-2c4 -108 4 -213 4 -320v-193h-86v630z" />
    <glyph glyph-name="O" unicode="O" horiz-adv-x="672" 
d="M338 640c192 0 291 -146 291 -325s-107 -324 -295 -324c-192 0 -291 144 -291 324c0 178 106 325 295 325zM139 315c0 -124 57 -253 199 -253c141 0 194 131 194 253c0 125 -54 254 -198 254c-141 0 -195 -133 -195 -254z" />
    <glyph glyph-name="P" unicode="P" horiz-adv-x="530" 
d="M74 0v630h195c119 0 222 -54 222 -185c0 -59 -26 -103 -73 -128c-45 -61 -119 -68 -192 -68c-20 0 -40 1 -60 1v-250h-92zM166 321h75c83 0 154 26 154 120c0 88 -64 118 -142 118h-87v-238z" />
    <glyph glyph-name="Q" unicode="Q" horiz-adv-x="669" 
d="M43 315c0 178 106 325 295 325c192 0 291 -146 291 -325c0 -162 -87 -299 -246 -320v-51c0 -49 21 -72 69 -72h100v-70c-143 0 -259 -14 -259 127v65c-166 19 -250 153 -250 321zM334 569c-141 0 -195 -133 -195 -254c0 -124 57 -253 199 -253c141 0 194 131 194 253
c0 125 -54 254 -198 254z" />
    <glyph glyph-name="R" unicode="R" horiz-adv-x="545" 
d="M74 0v630h211c115 0 208 -60 208 -184c0 -84 -51 -151 -131 -178l166 -268h-106l-143 251h-116v-251h-89zM163 559v-237h88c80 0 147 35 147 122c0 89 -61 115 -140 115h-95z" />
    <glyph glyph-name="S" unicode="S" horiz-adv-x="509" 
d="M259 640c63 0 121 -12 177 -40l-22 -69c-48 23 -95 38 -150 38c-61 0 -126 -25 -126 -94c0 -160 327 -87 327 -303c0 -129 -107 -181 -221 -181c-68 0 -135 12 -196 43l23 70c53 -27 107 -42 168 -42c64 0 132 22 132 99c0 156 -327 85 -327 303c0 125 104 176 215 176z
" />
    <glyph glyph-name="T" unicode="T" horiz-adv-x="505" 
d="M10 630h486v-72h-199v-558h-92v558h-195v72z" />
    <glyph glyph-name="U" unicode="U" horiz-adv-x="634" 
d="M322 -9c-171 0 -249 98 -249 262v377h92v-377c0 -109 33 -191 157 -191c109 0 147 80 147 179v389h92v-382c0 -161 -71 -257 -239 -257z" />
    <glyph glyph-name="V" unicode="V" horiz-adv-x="572" 
d="M238 0l-233 630h99c63 -179 132 -354 183 -537h2c51 183 120 358 183 537h96l-232 -630h-98z" />
    <glyph glyph-name="W" unicode="W" horiz-adv-x="834" 
d="M182 0l-171 630h94c32 -127 66 -252 95 -380c12 -51 24 -99 33 -150h2c36 179 89 353 136 530h95c48 -176 101 -350 138 -530h2c33 179 82 354 125 530h93l-167 -630h-99l-44 164c-33 121 -68 244 -96 368h-2c-28 -129 -61 -254 -96 -382l-40 -150h-98z" />
    <glyph glyph-name="X" unicode="X" horiz-adv-x="565" 
d="M116 0h-106l208 320l-199 310h109l154 -250l157 250h107l-205 -310l215 -320h-110l-168 260z" />
    <glyph glyph-name="Y" unicode="Y" horiz-adv-x="542" 
d="M228 262l-215 368h105l158 -281l159 281h105l-220 -368v-262h-92v262z" />
    <glyph glyph-name="Z" unicode="Z" horiz-adv-x="522" 
d="M39 630h446v-53l-345 -506h352v-71h-466v58l341 501h-328v71z" />
    <glyph glyph-name="period" unicode="." horiz-adv-x="183" 
d="M42 52c0 35 23 62 58 62s58 -27 58 -62s-22 -61 -58 -61s-58 26 -58 61z" />
    <glyph glyph-name="a" unicode="a" horiz-adv-x="480" 
d="M34 133c0 146 105 152 255 152h41v29c0 60 -31 98 -94 98c-49 0 -95 -17 -138 -40l-32 61c57 31 115 49 182 49c113 0 173 -62 173 -174v-308h-67l-12 56h-3c-37 -45 -91 -65 -148 -65c-87 0 -157 49 -157 142zM269 224c-91 0 -142 -9 -142 -86c0 -56 39 -80 91 -80
c44 0 91 26 112 65v101h-61z" />
    <glyph glyph-name="b" unicode="b" horiz-adv-x="543" 
d="M146 0h-74v712h90v-287c36 36 85 57 136 57c144 0 206 -114 206 -246c0 -129 -76 -245 -215 -245c-56 0 -100 14 -140 53h-2c0 -15 -1 -29 -1 -44zM162 352v-249c25 -29 66 -44 103 -44c99 0 146 87 146 175s-31 178 -134 178c-44 0 -88 -27 -115 -60z" />
    <glyph glyph-name="c" unicode="c" horiz-adv-x="443" 
d="M293 57c36 0 70 8 102 24l17 -61c-39 -21 -88 -29 -132 -29c-148 0 -242 97 -242 245c0 145 96 246 242 246c48 0 88 -6 131 -29l-20 -65c-31 17 -64 26 -98 26c-105 0 -163 -75 -163 -175c0 -104 52 -182 163 -182z" />
    <glyph glyph-name="d" unicode="d" horiz-adv-x="531" 
d="M38 236c0 137 71 246 218 246c43 0 88 -12 119 -40v270h91v-712h-66l-10 47h-4c-33 -43 -85 -56 -137 -56c-139 0 -211 118 -211 245zM277 414c-107 0 -147 -80 -147 -175c0 -91 38 -180 143 -180c40 0 81 17 102 53v255c-23 29 -62 47 -98 47z" />
    <glyph glyph-name="e" unicode="e" horiz-adv-x="493" 
d="M455 220h-325v-10c0 -99 66 -151 161 -151c43 0 84 7 123 24l18 -65c-47 -20 -101 -27 -150 -27c-153 0 -244 91 -244 243c0 136 78 248 222 248c88 0 149 -44 178 -117c19 -47 17 -90 17 -145zM132 285h230c0 67 -31 130 -106 130c-77 0 -116 -61 -124 -130z" />
    <glyph glyph-name="f" unicode="f" horiz-adv-x="341" 
d="M15 408v66h81v63c0 99 36 178 152 178h124v-70h-100c-68 0 -86 -46 -86 -106v-65h142v-66h-142v-408h-90v408h-81z" />
    <glyph glyph-name="g" unicode="g" horiz-adv-x="540" 
d="M40 236c0 135 66 246 213 246c47 0 91 -15 126 -46c1 13 2 26 3 38h84v-513c0 -137 -89 -211 -219 -211h-160v70h150c128 0 139 91 139 211c-36 -31 -81 -40 -128 -40c-141 0 -208 117 -208 245zM132 238c0 -88 35 -179 136 -179c39 0 84 16 108 49v259
c-27 31 -66 47 -107 47c-99 0 -137 -91 -137 -176z" />
    <glyph glyph-name="h" unicode="h" horiz-adv-x="546" 
d="M72 0v712h90v-291c43 37 97 61 154 61c101 0 160 -59 160 -162v-320h-90v301c0 67 -25 111 -97 111c-47 0 -94 -27 -127 -59v-353h-90z" />
    <glyph glyph-name="i" unicode="i" horiz-adv-x="263" 
d="M16 408v66h171v-474h-90v408h-81zM88 637c0 33 22 55 54 55c33 0 54 -22 54 -55c0 -32 -21 -53 -53 -53s-55 21 -55 53z" />
    <glyph glyph-name="j" unicode="j" horiz-adv-x="269" 
d="M88 637c0 33 22 55 54 55c33 0 54 -22 54 -55c0 -32 -21 -53 -53 -53s-55 21 -55 53zM187 474v-596c0 -122 -97 -128 -189 -128h-70v71h100c49 0 69 24 69 72v515h-81v66h171z" />
    <glyph glyph-name="k" unicode="k" horiz-adv-x="487" 
d="M72 712h90v-454l202 216h110l-191 -200l200 -274h-107l-158 222l-56 -56v-166h-90v712z" />
    <glyph glyph-name="l" unicode="l" horiz-adv-x="302" 
d="M162 712v-570c0 -63 33 -72 84 -72h32v-70h-64c-87 0 -142 34 -142 127v585h90z" />
    <glyph glyph-name="m" unicode="m" horiz-adv-x="828" 
d="M69 0v474h80v-63c45 47 94 72 159 72c59 0 109 -20 134 -76c45 47 99 76 166 76c100 0 151 -58 151 -157v-326h-90v310c0 62 -24 99 -87 99c-9 0 -18 0 -28 -2c-36 -3 -72 -27 -95 -56v-351h-90v310c0 47 -15 81 -51 93c-10 4 -22 5 -34 5c-9 0 -18 0 -27 -2
c-39 -4 -74 -27 -98 -58v-348h-90z" />
    <glyph glyph-name="n" unicode="n" horiz-adv-x="538" 
d="M69 0v474h80v-63c47 44 98 71 162 71c103 0 158 -59 158 -160v-322h-90v308c0 64 -28 104 -96 104c-48 0 -93 -29 -124 -64v-348h-90z" />
    <glyph glyph-name="o" unicode="o" 
d="M490 241c0 -136 -81 -250 -227 -250c-143 0 -225 103 -225 240c0 140 82 251 229 251c145 0 223 -103 223 -241zM397 236c0 84 -35 178 -133 178c-100 0 -132 -94 -132 -178c0 -85 35 -177 134 -177c100 0 131 93 131 177z" />
    <glyph glyph-name="p" unicode="p" horiz-adv-x="538" 
d="M161 -230h-90v708h75l5 -57c41 41 90 61 147 61c137 0 201 -109 201 -234c0 -143 -85 -257 -235 -257c-35 0 -74 8 -103 27v-248zM161 355v-267c27 -21 59 -29 91 -29c110 0 154 89 154 187c0 87 -32 167 -131 167c-43 0 -90 -23 -114 -58z" />
    <glyph glyph-name="q" unicode="q" horiz-adv-x="538" 
d="M38 237c0 133 73 245 217 245c49 0 99 -16 134 -53l8 45h69v-704h-91v259c-32 -28 -78 -38 -121 -38c-147 0 -216 110 -216 246zM130 240c0 -94 38 -181 145 -181c39 0 76 13 100 44v261c-27 33 -62 50 -104 50c-102 0 -141 -85 -141 -174z" />
    <glyph glyph-name="r" unicode="r" horiz-adv-x="371" 
d="M158 0h-90v474h80v-90c27 61 83 98 148 98h70v-74h-80c-90 0 -128 -72 -128 -155v-253z" />
    <glyph glyph-name="s" unicode="s" horiz-adv-x="415" 
d="M352 455l-20 -66c-34 17 -71 25 -112 25c-39 0 -88 -13 -88 -61c0 -105 243 -46 243 -219c0 -103 -95 -143 -185 -143c-51 0 -102 7 -149 30l21 67c40 -19 81 -29 122 -29c44 0 99 14 99 66c0 109 -241 52 -241 220c0 94 85 137 170 137c47 0 97 -7 140 -27z" />
    <glyph glyph-name="t" unicode="t" horiz-adv-x="370" 
d="M16 474h81v148h90v-148h144v-66h-144v-266c0 -49 21 -72 69 -72h100v-71l-118 1c-85 0 -141 35 -141 127v281h-81v66z" />
    <glyph glyph-name="u" unicode="u" horiz-adv-x="539" 
d="M69 474h90v-306c0 -68 27 -108 99 -108c47 0 95 22 122 61v353h90v-474h-66l-10 56h-3c-43 -44 -98 -65 -159 -65c-107 0 -163 59 -163 166v317z" />
    <glyph glyph-name="v" unicode="v" horiz-adv-x="453" 
d="M13 474h96l66 -224c19 -60 38 -121 51 -182h3c12 60 31 122 50 182l66 224h96l-166 -474h-98z" />
    <glyph glyph-name="w" unicode="w" horiz-adv-x="704" 
d="M143 0l-133 474h93c33 -129 71 -271 95 -404h3c28 133 68 273 104 404h95c35 -135 71 -268 102 -404h3c31 136 63 269 98 404h90l-131 -474h-106l-14 56c-1 5 -2 9 -4 14c-30 112 -60 222 -86 336c-26 -114 -58 -224 -88 -336c-2 -5 -3 -9 -4 -14l-14 -56h-103z" />
    <glyph glyph-name="x" unicode="x" horiz-adv-x="459" 
d="M112 0h-102l165 241l-157 233h102c39 -60 77 -121 112 -182c33 63 71 122 108 182h98l-155 -233l167 -241h-104c-40 61 -80 121 -119 185c-39 -63 -76 -122 -115 -185z" />
    <glyph glyph-name="y" unicode="y" horiz-adv-x="472" 
d="M-6 -177h43c135 0 115 30 169 178l-196 473h97c48 -128 96 -254 139 -383h3c37 129 81 255 124 383h91l-194 -548c-60 -169 -64 -174 -239 -174h-37v71z" />
    <glyph glyph-name="z" unicode="z" horiz-adv-x="415" 
d="M388 474v-54l-262 -352h267v-68h-370v58l259 348h-244v68h350z" />
    <glyph glyph-name="comma" unicode="," horiz-adv-x="196" 
d="M44 56c0 35 24 59 59 59c51 0 67 -49 67 -91c0 -73 -52 -141 -115 -172l-28 39c39 19 71 55 80 98c-39 8 -63 24 -63 67z" />
    <glyph glyph-name="zero" unicode="0" horiz-adv-x="547" 
d="M274 599c173 0 232 -154 232 -303c0 -146 -60 -304 -232 -304c-173 0 -233 155 -233 304c0 144 67 303 233 303zM130 296c0 -93 26 -238 146 -238c117 0 142 147 142 238c0 93 -25 238 -145 238c-118 0 -143 -147 -143 -238z" />
    <glyph glyph-name="one" unicode="1" horiz-adv-x="379" 
d="M47 520l153 71h70v-514h72v-77h-245v77h88v430l-118 -53z" />
    <glyph glyph-name="two" unicode="2" horiz-adv-x="453" 
d="M208 533c-49 0 -90 -18 -127 -50l-37 56c52 43 104 60 172 60c105 0 181 -61 181 -170c0 -141 -159 -273 -251 -362h267v-67h-360l-15 57c85 83 270 244 270 366c0 65 -32 110 -100 110z" />
    <glyph glyph-name="three" unicode="3" horiz-adv-x="465" 
d="M75 498l-27 59c47 31 98 42 154 42c92 0 181 -55 181 -155c0 -68 -35 -116 -98 -141c69 -16 119 -70 119 -142c0 -123 -105 -169 -212 -169c-52 0 -110 9 -157 33l18 62c39 -19 82 -29 129 -29c64 0 133 30 133 104c0 95 -94 102 -168 102h-36v65h42c68 0 144 25 144 106
c0 65 -47 98 -108 98c-44 0 -78 -12 -114 -35z" />
    <glyph glyph-name="four" unicode="4" horiz-adv-x="514" 
d="M18 201l270 390h103v-376h94v-67h-94v-148h-85v148h-288v53zM113 215h193c-1 100 -1 199 4 299c-46 -70 -140 -221 -197 -299z" />
    <glyph glyph-name="five" unicode="5" horiz-adv-x="470" 
d="M105 591l288 1v-67h-223l-17 -164c19 3 36 4 55 4c109 0 203 -62 203 -179c0 -133 -106 -194 -229 -194c-45 0 -99 5 -138 28l19 65c33 -19 74 -26 111 -26c77 0 149 35 149 122c0 86 -75 120 -151 120c-32 0 -65 -3 -96 -12z" />
    <glyph glyph-name="six" unicode="6" horiz-adv-x="492" 
d="M301 599c40 0 75 -4 112 -20l-19 -65c-27 15 -57 19 -88 19c-120 0 -175 -98 -183 -206c35 43 91 65 147 65c116 0 189 -78 189 -192c0 -120 -80 -208 -203 -208c-164 0 -218 140 -218 281c0 163 79 326 263 326zM125 215c0 -80 43 -158 131 -158c76 0 116 70 116 139
c0 76 -40 130 -120 130c-60 0 -127 -44 -127 -111z" />
    <glyph glyph-name="seven" unicode="7" horiz-adv-x="464" 
d="M49 591h376v-52l-263 -553l-76 33l252 508h-289v64z" />
    <glyph glyph-name="eight" unicode="8" horiz-adv-x="482" 
d="M244 599c91 0 188 -47 188 -150c0 -72 -49 -112 -112 -136c71 -24 127 -69 127 -149c0 -117 -101 -172 -208 -172c-100 0 -205 49 -205 164c0 83 51 124 123 151c-60 24 -103 67 -103 135c0 107 94 157 190 157zM139 446c0 -59 50 -92 102 -105c48 11 105 48 105 103
c0 60 -48 91 -104 91c-55 0 -103 -29 -103 -89zM236 272c-25 -3 -65 -22 -84 -39c-22 -19 -33 -44 -33 -74c0 -71 60 -102 123 -102c60 0 121 35 121 102c0 31 -14 55 -37 75c-21 17 -63 35 -90 38z" />
    <glyph glyph-name="nine" unicode="9" horiz-adv-x="491" 
d="M200 -8c-43 0 -87 3 -126 22l18 64c31 -15 68 -20 101 -20c123 0 168 95 173 204c-32 -43 -86 -61 -139 -61c-116 0 -192 78 -192 194c0 124 85 204 209 204c154 0 208 -147 208 -278c0 -166 -59 -329 -252 -329zM364 371c0 72 -39 163 -122 163
c-80 0 -120 -63 -120 -136c0 -77 42 -130 122 -130c61 0 120 38 120 103z" />
    <glyph glyph-name="hyphen" unicode="-" horiz-adv-x="280" 
d="M30 325h220v-70h-220v70z" />
    <glyph glyph-name="plus" unicode="+" horiz-adv-x="523" 
d="M231 255h-198v60h198v198h62v-198h196v-60h-196v-198h-62v198z" />
    <glyph glyph-name="asterisk" unicode="*" horiz-adv-x="356" 
d="M107 372l-47 35c25 40 62 80 98 109c-9 1 -17 0 -28 3c-39 4 -80 13 -115 28l18 56c45 -9 98 -32 137 -57c-5 25 -13 53 -17 78v66h60v-66c-3 -25 -11 -53 -16 -78c39 25 89 48 136 57l18 -55c-29 -11 -58 -22 -87 -25c-19 -3 -39 -4 -56 -7c35 -28 73 -70 97 -109
l-48 -35c-31 35 -57 83 -74 126c-21 -48 -43 -85 -76 -126z" />
    <glyph glyph-name="asciicircum" unicode="^" horiz-adv-x="488" 
d="M55 412l161 308h55l163 -308h-66l-124 251l-122 -251h-67z" />
    <glyph glyph-name="tilde" unicode="&#x2dc;" horiz-adv-x="401" 
d="M88 579h-52c0 59 17 116 86 116c48 0 82 -45 118 -50c11 -2 19 -1 26 2c20 7 22 31 22 52h51c0 -60 -13 -114 -83 -114c-61 0 -96 52 -131 52c-33 0 -37 -32 -37 -58z" />
    <glyph glyph-name="slash" unicode="/" horiz-adv-x="348" 
d="M66 -102h-68l286 804h67z" />
    <glyph glyph-name="backslash" unicode="\" horiz-adv-x="299" 
d="M299 -88h-65l-236 808h65z" />
    <glyph glyph-name="colon" unicode=":" horiz-adv-x="211" 
d="M48 52c0 35 23 62 58 62s58 -27 58 -62s-22 -61 -58 -61s-58 26 -58 61zM48 365c0 35 23 61 58 61s58 -26 58 -61s-22 -62 -58 -62s-58 27 -58 62z" />
    <glyph glyph-name="semicolon" unicode=";" horiz-adv-x="219" 
d="M46 56c0 35 25 59 60 59c50 0 66 -49 66 -91c0 -73 -52 -140 -114 -172l-29 39c39 19 71 55 80 98c-39 8 -63 24 -63 67zM47 365c0 35 24 61 59 61s58 -26 58 -61s-22 -62 -58 -62s-59 27 -59 62z" />
    <glyph glyph-name="less" unicode="&#x3c;" horiz-adv-x="488" 
d="M426 21l-364 206v54l364 206v-76l-285 -157l285 -157v-76z" />
    <glyph glyph-name="equal" unicode="=" horiz-adv-x="427" 
d="M33 315h360v-75h-360v75z" />
    <glyph glyph-name="greater" unicode="&#x3e;" horiz-adv-x="488" 
d="M62 487l364 -206v-54l-364 -206v76l285 157l-285 157v76z" />
    <glyph glyph-name="exclam" unicode="!" horiz-adv-x="217" 
d="M75 192l-10 473h90l-13 -473h-67zM55 47c0 32 22 56 54 56s53 -25 53 -56s-20 -55 -53 -55s-54 23 -54 55z" />
    <glyph glyph-name="question" unicode="?" horiz-adv-x="406" 
d="M191 670c97 0 177 -50 177 -154c0 -146 -176 -191 -176 -294c0 -15 0 -31 7 -46l-71 -10c-7 15 -11 41 -11 60c0 122 165 170 165 285c0 63 -46 90 -103 90c-37 0 -67 -11 -98 -31l-31 59c40 29 93 41 141 41zM120 47c0 31 22 56 54 56s53 -24 53 -56s-20 -55 -53 -55
s-54 24 -54 55z" />
    <glyph glyph-name="quotesingle" unicode="'" horiz-adv-x="175" 
d="M59 421l-12 225h81l-13 -225h-56z" />
    <glyph glyph-name="quotedbl" unicode="&#x22;" horiz-adv-x="328" 
d="M200 646h81l-13 -225h-56zM60 421l-13 225h81l-12 -225h-56z" />
    <glyph glyph-name="numbersign" unicode="#" horiz-adv-x="581" 
d="M32 205v58h118c11 60 21 119 30 180h-115v55h124l32 195h57l-32 -195v-1h148v1l32 195h58l-33 -195h98v-55h-106c-11 -61 -21 -120 -30 -180h104v-58h-113c-11 -68 -23 -136 -34 -205h-58l34 205h-148c-11 -68 -23 -136 -34 -205h-58l34 205h-108zM238 443l-31 -180h147
l31 180h-147z" />
    <glyph glyph-name="at" unicode="@" horiz-adv-x="964" 
d="M587 12l-20 46h-2c-43 -47 -99 -67 -162 -67c-76 0 -141 46 -141 127c0 144 147 168 271 168c17 0 34 -1 49 -1c4 20 8 39 8 60c0 55 -37 71 -86 71c-48 0 -105 -22 -148 -43l-21 59c60 31 119 50 187 50c88 0 153 -39 153 -133c0 -80 -34 -164 -34 -241
c0 -29 11 -46 42 -46c119 0 164 167 164 268c0 181 -129 303 -308 303c-264 0 -420 -203 -420 -455c0 -207 134 -337 340 -337c71 0 141 9 205 40l15 -54c-72 -31 -151 -46 -230 -46c-240 0 -402 146 -402 390c0 287 190 521 488 521c220 0 385 -130 385 -359
c0 -157 -81 -333 -262 -333c-21 0 -52 1 -71 12zM554 114l20 115h-68c-69 0 -155 -20 -155 -105c0 -49 38 -70 83 -70c47 0 93 21 120 60z" />
    <glyph glyph-name="dollar" unicode="$" horiz-adv-x="504" 
d="M225 574v105h62v-104c43 -7 85 -15 122 -38l-24 -62c-40 21 -87 33 -132 33c-44 0 -103 -21 -103 -75c0 -124 290 -62 290 -263c0 -94 -83 -143 -167 -154v-108h-62v108c-52 4 -103 18 -148 46l30 62c43 -27 91 -40 142 -40c49 0 115 17 115 78c0 139 -289 71 -289 265
c0 94 80 142 164 147z" />
    <glyph glyph-name="Euro" unicode="&#x20ac;" horiz-adv-x="519" 
d="M5 260h59c-3 19 -2 38 -2 57h-57v50h63c27 140 126 232 271 232c56 0 107 -6 158 -34l-20 -65c-39 21 -81 31 -126 31c-104 0 -170 -67 -191 -164h264v-50h-270v-19c0 -13 -1 -26 2 -38h268v-51h-259c23 -89 89 -149 184 -149c47 0 88 8 128 29l18 -66
c-48 -24 -102 -31 -155 -31c-141 0 -239 81 -270 217h-65v51z" />
    <glyph glyph-name="percent" unicode="%" horiz-adv-x="708" 
d="M195 0h-60l385 657h59zM680 159c0 -90 -49 -167 -146 -167c-96 0 -145 78 -145 167c0 88 53 165 147 165c96 0 144 -77 144 -165zM613 159c0 52 -15 114 -78 114c-61 0 -78 -64 -78 -114c0 -51 13 -115 77 -115c63 0 79 62 79 115zM316 492c0 -90 -48 -167 -147 -167
c-96 0 -144 79 -144 167s53 165 147 165c93 0 144 -78 144 -165zM248 492c0 50 -17 111 -77 111c-59 0 -79 -62 -79 -111c0 -50 16 -114 77 -114c64 0 79 62 79 114z" />
    <glyph glyph-name="ampersand" unicode="&#x26;" horiz-adv-x="643" 
d="M256 -9c-116 0 -232 64 -232 192c0 106 70 161 160 195c-39 40 -71 87 -71 144c0 100 81 148 173 148c88 0 167 -50 167 -145c0 -65 -65 -125 -150 -165l166 -171c27 41 44 88 59 135l68 -28c-19 -56 -43 -111 -76 -159l133 -137h-105l-76 78c-60 -61 -132 -87 -216 -87z
M423 129l-193 198c-65 -25 -117 -65 -117 -141c0 -88 75 -127 154 -127c56 0 120 25 156 70zM199 526c0 -48 27 -85 58 -117c67 35 113 71 113 114c0 51 -36 83 -87 83s-84 -28 -84 -80z" />
    <glyph glyph-name="parenleft" unicode="(" horiz-adv-x="278" 
d="M245 -102l-54 -31c-92 124 -149 248 -149 404c0 149 55 292 152 405l50 -32c-79 -113 -122 -234 -122 -373c0 -145 45 -252 123 -373z" />
    <glyph glyph-name="parenright" unicode=")" horiz-adv-x="278" 
d="M33 646l53 29c93 -117 148 -252 148 -404c0 -149 -53 -289 -149 -404l-52 33c77 116 123 230 123 371c0 143 -46 258 -123 375z" />
    <glyph glyph-name="braceleft" unicode="{" horiz-adv-x="326" 
d="M29 304c71 8 101 40 101 108c-1 51 -4 102 0 153c5 92 87 134 172 134v-56c-134 0 -106 -147 -106 -250c0 -53 -17 -95 -69 -115v-2c91 -48 69 -181 69 -271c0 -77 47 -95 106 -98v-56c-45 0 -90 11 -125 40c-120 100 44 351 -148 359v54z" />
    <glyph glyph-name="bar" unicode="|" horiz-adv-x="206" 
d="M136 -196h-67v919h67v-919z" />
    <glyph glyph-name="braceright" unicode="}" horiz-adv-x="326" 
d="M24 643v56c44 0 90 -11 125 -40c119 -99 -45 -351 148 -359v-54c-64 -7 -97 -31 -100 -91c-4 -53 3 -113 -1 -170c-8 -92 -88 -134 -172 -134v56c132 0 106 147 106 250c0 53 17 95 69 115v2c-91 48 -69 175 -69 267c0 78 -45 97 -106 102z" />
    <glyph glyph-name="bracketleft" unicode="[" horiz-adv-x="269" 
d="M68 683h174v-53h-104v-709h104v-54h-174v816z" />
    <glyph glyph-name="bracketright" unicode="]" horiz-adv-x="269" 
d="M130 630h-104v53h175v-816h-175v54h104v709z" />
    <glyph glyph-name="quoteleft" unicode="&#x2018;" horiz-adv-x="192" 
d="M148 545c0 -36 -25 -59 -60 -59c-50 0 -66 47 -66 90c0 74 52 140 114 172l29 -39c-39 -19 -71 -54 -80 -97c39 -8 63 -26 63 -67z" />
    <glyph glyph-name="quoteright" unicode="&#x2019;" horiz-adv-x="192" 
d="M44 675c0 35 25 58 60 58c50 0 66 -47 66 -90c0 -73 -52 -140 -114 -172l-29 39c39 19 71 55 80 98c-39 8 -63 24 -63 67z" />
    <glyph glyph-name="quotedblleft" unicode="&#x201c;" horiz-adv-x="386" 
d="M148 545c0 -35 -24 -59 -59 -59c-50 0 -67 47 -67 90c0 74 52 140 114 172l29 -39c-39 -19 -71 -54 -80 -97c39 -8 63 -26 63 -67zM341 545c0 -35 -23 -59 -58 -59c-51 0 -68 47 -68 90c0 74 53 140 115 172l28 -39c-37 -19 -71 -54 -79 -97c39 -8 62 -26 62 -67z" />
    <glyph glyph-name="quotedblright" unicode="&#x201d;" horiz-adv-x="386" 
d="M44 675c0 35 24 59 59 59c50 0 67 -47 67 -90c0 -72 -52 -140 -114 -173l-29 40c39 19 71 54 80 97c-39 8 -63 26 -63 67zM238 675c0 35 24 59 59 59c50 0 67 -47 67 -90c0 -72 -52 -141 -115 -173l-28 40c39 19 71 54 80 97c-39 8 -63 26 -63 67z" />
    <glyph glyph-name="quotesinglbase" unicode="&#x201a;" horiz-adv-x="212" 
d="M45 55c0 35 25 60 60 60c50 0 69 -47 69 -91c0 -73 -51 -141 -114 -172l-29 39c39 19 71 55 80 98c-39 8 -66 23 -66 66z" />
    <glyph glyph-name="quotedblbase" unicode="&#x201e;" horiz-adv-x="418" 
d="M45 55c0 35 25 60 60 60c50 0 69 -47 69 -91c0 -73 -51 -141 -114 -172l-29 39c39 19 71 55 80 98c-39 8 -66 23 -66 66zM251 55c0 35 25 60 60 60c50 0 69 -47 69 -91c0 -73 -51 -141 -114 -172l-29 39c39 19 71 55 80 98c-39 8 -66 23 -66 66z" />
    <glyph glyph-name="bullet" unicode="&#x2022;" horiz-adv-x="330" 
d="M52 270c0 65 48 114 113 114s113 -49 113 -114s-48 -114 -113 -114s-113 49 -113 114z" />
    <glyph glyph-name="underscore" unicode="_" horiz-adv-x="370" 
d="M8 -194h354v-56h-354v56z" />
    <glyph glyph-name="endash" unicode="&#x2013;" horiz-adv-x="510" 
d="M44 261h421v-61h-421v61z" />
    <glyph glyph-name="emdash" unicode="&#x2014;" horiz-adv-x="923" 
d="M44 260h834v-60h-834v60z" />
    <glyph glyph-name="macron" unicode="&#xaf;" horiz-adv-x="294" 
d="M27 661h241v-55h-241v55z" />
    <glyph glyph-name="logicalnot" unicode="&#xac;" horiz-adv-x="871" 
 />
    <glyph glyph-name="trademark" unicode="&#x2122;" horiz-adv-x="737" 
d="M338 274l33 356h72c7 -23 12 -42 19 -65c24 -72 46 -145 63 -220h3c21 96 50 190 81 285h72l34 -356h-57c-5 86 -20 199 -20 291c-29 -97 -58 -194 -89 -291h-47c-27 81 -71 198 -87 291c-3 -60 -17 -224 -22 -291h-55zM40 583v47h270v-47h-106v-309h-60v309h-104z" />
    <glyph glyph-name="registered" unicode="&#xae;" horiz-adv-x="530" 
d="M266 235c-136 0 -228 84 -228 223c0 143 83 229 226 229c136 0 228 -82 228 -221c0 -141 -82 -231 -226 -231zM74 462c0 -123 67 -198 192 -198c121 0 190 81 190 198c0 119 -72 195 -192 195c-121 0 -190 -75 -190 -195zM180 588h95c47 0 85 -22 85 -73
c0 -33 -19 -58 -50 -70c23 -37 45 -73 68 -110h-48l-59 101h-52v-101h-39v253zM219 558v-92h42c32 0 58 13 58 48s-24 44 -55 44h-45z" />
    <glyph glyph-name="copyright" unicode="&#xa9;" horiz-adv-x="706" 
d="M379 182c27 0 53 5 77 18l14 -44c-31 -15 -64 -21 -97 -21c-108 0 -178 68 -178 176s70 176 178 176c33 0 64 -6 94 -19l-13 -45c-23 13 -49 18 -76 18c-80 0 -123 -51 -123 -128c0 -79 41 -131 124 -131zM355 636c193 0 315 -131 315 -322c0 -188 -129 -322 -319 -322
c-193 0 -315 132 -315 322c0 189 129 322 319 322zM355 599c-168 0 -274 -121 -274 -285s98 -285 270 -285c168 0 274 121 274 285s-100 285 -270 285z" />
    <glyph glyph-name="currency" unicode="&#xa4;" horiz-adv-x="518" 
d="M157 157l-82 -84l-42 42l84 83c-23 32 -30 69 -30 108s6 76 29 107l-82 82l42 42l80 -82c31 24 67 35 104 35c38 0 72 -12 102 -36l81 83l42 -42l-84 -83c20 -31 30 -67 30 -106s-9 -77 -30 -110l84 -81l-43 -42l-81 82c-29 -23 -66 -34 -103 -34s-73 12 -101 36z
M360 306c0 64 -27 128 -101 128c-75 0 -102 -61 -102 -128c0 -64 27 -129 102 -129c74 0 101 65 101 129z" />
    <glyph glyph-name="cent" unicode="&#xa2;" horiz-adv-x="491" 
d="M54 307c0 131 77 225 209 241v92h75v-92c33 -5 65 -11 96 -26l-19 -62c-33 15 -70 24 -107 24c-108 0 -161 -65 -161 -174c0 -108 58 -179 166 -179c36 0 72 7 104 24l18 -62c-29 -15 -66 -22 -97 -26v-88h-75v88c-133 15 -209 108 -209 240z" />
    <glyph glyph-name="sterling" unicode="&#xa3;" horiz-adv-x="484" 
d="M72 0l-18 52c59 35 89 89 89 160c0 17 -1 34 -4 49h-84v64h74c-7 29 -10 57 -10 88c0 117 80 186 195 186c33 0 88 -8 117 -24l-18 -62c-29 15 -63 20 -95 20c-77 0 -115 -50 -115 -125c0 -28 3 -56 10 -83h163v-64h-154c3 -15 2 -31 2 -46c0 -53 -8 -105 -47 -144v-2
h264v-69h-369z" />
    <glyph glyph-name="yen" unicode="&#xa5;" horiz-adv-x="515" 
d="M155 351l-141 240h97l147 -269l150 269h95l-143 -240h117v-55h-147l-30 -49v-32h177v-56h-177v-159h-87v159h-180v56h180v32l-29 49h-151v55h122z" />
    <glyph glyph-name="florin" unicode="&#x192;" horiz-adv-x="509" 
d="M26 -188l-28 72c83 19 131 72 143 158l53 367h-79v65h88c19 133 40 276 201 276c33 0 73 -9 102 -25l-21 -62c-23 11 -47 17 -73 17c-109 0 -110 -126 -121 -206h140v-66h-149l-46 -333c-21 -132 -62 -234 -210 -263z" />
    <glyph glyph-name="minus" unicode="&#x2212;" horiz-adv-x="444" 
d="M37 323h369v-56h-369v56z" />
    <glyph glyph-name="plusminus" unicode="&#xb1;" horiz-adv-x="451" 
d="M195 290h-161v59h161v157h60v-157h162v-59h-162v-158h-60v158zM56 58h335v-58h-335v58z" />
    <glyph glyph-name="multiply" unicode="&#xd7;" horiz-adv-x="424" 
d="M42 427l44 45l126 -126l126 125l44 -44l-125 -126l125 -125l-44 -45l-126 125l-126 -125l-44 44l125 126z" />
    <glyph glyph-name="divide" unicode="&#xf7;" horiz-adv-x="508" 
d="M199 98c0 29 21 53 52 53c29 0 51 -24 51 -53c0 -31 -20 -54 -51 -54s-52 23 -52 54zM199 412c0 29 21 53 52 53c29 0 51 -24 51 -53c0 -31 -20 -53 -51 -53s-52 22 -52 53zM37 282h433v-55h-433v55z" />
    <glyph glyph-name="brokenbar" unicode="&#xa6;" horiz-adv-x="229" 
d="M80 380v370h69v-370h-69zM80 188h69v-368h-69v368z" />
    <glyph glyph-name="ellipsis" unicode="&#x2026;" horiz-adv-x="681" 
d="M51 52c0 35 23 62 58 62s58 -27 58 -62s-22 -61 -58 -61s-58 26 -58 61zM287 52c0 35 24 62 59 62s58 -27 58 -62s-22 -61 -58 -61s-59 26 -59 61zM524 52c0 35 23 62 58 62s58 -27 58 -62s-22 -61 -58 -61s-58 26 -58 61z" />
    <glyph glyph-name="periodcentered" unicode="&#xb7;" horiz-adv-x="184" 
d="M42 338c0 31 20 55 51 55s49 -26 49 -55s-18 -54 -49 -54s-51 23 -51 54z" />
    <glyph glyph-name="exclamdown" unicode="&#xa1;" horiz-adv-x="231" 
d="M60 409c0 33 21 59 56 59s56 -26 56 -59c0 -32 -23 -59 -56 -59s-56 27 -56 59zM161 -251h-94l14 505h70z" />
    <glyph glyph-name="questiondown" unicode="&#xbf;" horiz-adv-x="436" 
d="M241 -247c-103 0 -188 53 -188 165c0 154 188 203 188 314c0 16 -1 33 -8 48l75 11c7 -17 11 -44 11 -63c0 -137 -176 -177 -176 -305c0 -67 48 -98 111 -98c39 0 72 10 105 33l32 -60c-43 -31 -98 -45 -150 -45zM316 418c0 -32 -24 -58 -57 -58s-56 26 -56 58
c0 35 21 60 56 60s57 -25 57 -60z" />
    <glyph glyph-name="degree" unicode="&#xb0;" horiz-adv-x="390" 
d="M359 467c0 -103 -57 -173 -164 -173c-104 0 -161 74 -161 173c0 100 60 173 164 173c100 0 161 -76 161 -173zM296 467c0 66 -24 122 -98 122c-76 0 -101 -54 -101 -122c0 -64 25 -123 98 -123c76 0 101 57 101 123z" />
    <glyph glyph-name="ordfeminine" unicode="&#xaa;" horiz-adv-x="331" 
d="M32 360c0 90 92 100 163 100h30v27c0 36 -23 55 -58 55c-32 0 -63 -11 -90 -26l-21 41c37 20 75 33 118 33c72 0 113 -35 113 -108v-208h-46l-8 35h-2c-24 -28 -58 -41 -95 -41c-57 0 -104 29 -104 92zM95 364c0 -36 26 -49 59 -49c31 0 54 12 71 36v69h-27
c-41 0 -103 -5 -103 -56z" />
    <glyph glyph-name="ordmasculine" unicode="&#xba;" horiz-adv-x="508" 
 />
    <glyph glyph-name="onesuperior" unicode="&#xb9;" horiz-adv-x="270" 
d="M22 794l124 57h57v-406h-75v328l-89 -41z" />
    <glyph glyph-name="twosuperior" unicode="&#xb2;" horiz-adv-x="321" 
d="M138 803c-35 0 -66 -12 -95 -31l-27 48c37 25 80 38 127 38c76 0 148 -39 148 -124c0 -107 -104 -176 -179 -235h179v-54h-263l-12 43c24 21 54 46 85 73c54 46 116 102 116 170c0 45 -36 72 -79 72z" />
    <glyph glyph-name="threesuperior" unicode="&#xb3;" horiz-adv-x="305" 
d="M38 785l-17 50c36 17 70 23 110 23c63 0 136 -38 136 -110c0 -52 -32 -79 -79 -94v-2c51 -9 93 -40 93 -95c0 -86 -87 -117 -159 -117c-35 0 -81 5 -112 18l14 51c31 -9 60 -14 92 -14c42 0 89 17 89 68c0 53 -62 60 -110 60c-15 0 -28 -1 -39 -1v54h23
c48 0 113 4 113 66c0 43 -35 62 -74 62c-29 0 -55 -7 -80 -19z" />
    <glyph glyph-name="fraction" unicode="&#x2044;" horiz-adv-x="439" 
d="M45 -10h-61l409 650h61z" />
    <glyph glyph-name="onequarter" unicode="&#xbc;" horiz-adv-x="765" 
d="M416 101v41l179 239h74v-231h72v-49h-72v-101h-67v101h-186zM146 -9l384 609h59l-384 -609h-59zM31 537l116 54h55v-382h-72v307c-28 -13 -56 -25 -83 -38zM491 150h111c0 55 -1 107 2 160c-25 -38 -81 -120 -113 -160z" />
    <glyph glyph-name="onehalf" unicode="&#xbd;" horiz-adv-x="793" 
d="M200 -9h-59l383 609h59zM615 335c-33 0 -62 -10 -89 -29l-26 46c36 23 76 35 119 35c73 0 140 -33 140 -116c0 -100 -96 -166 -166 -219h166v-52h-247l-11 41c23 20 50 44 78 69c49 43 109 94 109 158c0 43 -34 67 -73 67zM31 537l116 54h55v-382h-72v307
c-28 -13 -56 -25 -83 -38z" />
    <glyph glyph-name="threequarters" unicode="&#xbe;" horiz-adv-x="799" 
d="M446 101v41l178 239h75v-231h71v-49h-71v-101h-67v101h-186zM131 204c-33 0 -74 4 -105 17l13 49c28 -9 57 -13 86 -13c40 0 83 16 83 62c0 51 -59 56 -102 56c-15 0 -28 -1 -37 -1v52h23c45 0 104 4 104 61c0 39 -33 57 -69 57c-26 0 -51 -6 -75 -17l-16 48
c35 17 65 21 104 21c60 0 127 -34 127 -103c0 -48 -29 -75 -72 -90c47 -9 86 -38 86 -89c0 -83 -81 -110 -150 -110zM188 -9l384 609h59l-384 -609h-59zM633 310c-33 -56 -73 -109 -112 -160h111c-1 55 -2 105 1 160z" />
    <glyph glyph-name="perthousand" unicode="&#x2030;" horiz-adv-x="1073" 
d="M196 0h-60l385 657h58zM681 159c0 -90 -49 -167 -146 -167s-145 78 -145 167c0 88 53 165 147 165c96 0 144 -77 144 -165zM613 159c0 49 -16 114 -76 114s-79 -62 -79 -114c0 -51 13 -115 77 -115c63 0 78 62 78 115zM316 492c0 -89 -49 -167 -146 -167
c-96 0 -144 79 -144 167s53 165 147 165s143 -78 143 -165zM249 492c0 49 -16 111 -76 111c-61 0 -80 -59 -80 -111c0 -50 16 -114 77 -114c64 0 79 62 79 114zM1043 159c0 -90 -51 -167 -147 -167c-97 0 -145 78 -145 167c0 88 55 165 148 165c96 0 144 -78 144 -165z
M975 159c0 49 -16 114 -76 114c-61 0 -80 -62 -80 -114c0 -51 13 -115 77 -115s79 62 79 115z" />
    <glyph glyph-name="mu" unicode="&#xb5;" horiz-adv-x="530" 
d="M154 -161h-90v635h90v-309c0 -68 30 -105 99 -105c47 0 95 22 122 61v353h90v-474h-65l-11 56h-3c-41 -43 -91 -65 -152 -65c-28 0 -57 5 -80 20c-3 3 -6 2 -9 5c0 -17 9 -56 9 -71v-106z" />
    <glyph glyph-name="paragraph" unicode="&#xb6;" horiz-adv-x="560" 
d="M258 254c-126 0 -211 61 -211 194c0 132 93 192 217 192h230v-819h-69v755h-97v-755h-70v433z" />
    <glyph glyph-name="section" unicode="&#xa7;" horiz-adv-x="499" 
d="M52 -36l21 68c43 -23 90 -35 139 -35s106 17 106 77c0 110 -271 65 -271 236c0 48 28 91 68 116c-19 20 -28 49 -28 76c0 102 91 141 180 141c51 0 106 -9 150 -32l-20 -65c-40 19 -81 29 -124 29c-45 0 -96 -17 -96 -69c0 -111 275 -73 275 -239c0 -51 -25 -91 -64 -120
c15 -20 20 -46 20 -70c0 -101 -93 -149 -184 -149c-60 0 -117 9 -172 36zM371 255c0 83 -141 93 -205 133c-23 -15 -38 -38 -38 -66c0 -63 78 -82 134 -101c27 -9 54 -19 74 -31c20 13 35 41 35 65z" />
    <glyph glyph-name="dagger" unicode="&#x2020;" horiz-adv-x="383" 
d="M148 404h-130v70h130v156h88v-156h129v-70h-129v-444h-88v444z" />
    <glyph glyph-name="daggerdbl" unicode="&#x2021;" horiz-adv-x="383" 
d="M148 132h-130v70h130v202h-130v70h130v156h88v-156h129v-70h-129v-202h129v-70h-129v-172h-88v172z" />
    <glyph glyph-name="asciitilde" unicode="~" horiz-adv-x="581" 
d="M109 206h-63c0 88 49 146 140 146c88 0 145 -76 217 -76c53 0 70 38 70 85h63c0 -80 -33 -150 -124 -150c-87 0 -155 78 -227 78c-51 0 -76 -35 -76 -83z" />
    <glyph glyph-name="guilsinglleft" unicode="&#x2039;" horiz-adv-x="271" 
d="M248 76h-80l-140 160l140 161h80l-128 -161z" />
    <glyph glyph-name="guilsinglright" unicode="&#x203a;" horiz-adv-x="271" 
d="M103 76h-80l128 161l-128 160h80l140 -160z" />
    <glyph glyph-name="guillemotleft" unicode="&#xab;" horiz-adv-x="464" 
d="M221 236l140 161h80l-128 -161l128 -160h-80zM168 76l-140 160l140 161h80l-128 -161l128 -160h-80z" />
    <glyph glyph-name="guillemotright" unicode="&#xbb;" horiz-adv-x="464" 
d="M296 76h-80l128 161l-128 160h80l140 -160zM23 76l128 161l-128 160h80l140 -160l-140 -161h-80z" />
    <glyph glyph-name="breve" unicode="&#x2d8;" horiz-adv-x="295" 
d="M14 684h62c1 -49 26 -74 74 -74c47 0 71 29 72 74h61c0 -84 -53 -129 -133 -129s-136 45 -136 129z" />
    <glyph glyph-name="dotaccent" unicode="&#x2d9;" horiz-adv-x="156" 
d="M26 626c0 31 21 54 52 54s52 -23 52 -54s-20 -55 -52 -55s-52 24 -52 55z" />
    <glyph glyph-name="ring" unicode="&#x2da;" horiz-adv-x="246" 
d="M25 623c0 57 42 87 97 87c56 0 97 -28 97 -87c0 -56 -44 -87 -97 -87c-52 0 -97 32 -97 87zM75 623c0 -31 16 -51 47 -51s47 20 47 51c0 29 -16 51 -47 51s-47 -22 -47 -51z" />
    <glyph glyph-name="hungarumlaut" unicode="&#x2dd;" horiz-adv-x="292" 
d="M192 552l82 142h95l-111 -142h-66zM74 552h-66l82 142h95z" />
    <glyph glyph-name="ogonek" unicode="&#x2db;" horiz-adv-x="248" 
d="M92 0h69c-31 -23 -67 -51 -67 -94c0 -36 28 -52 61 -52c19 0 35 3 49 10l13 -49c-24 -15 -53 -20 -81 -20c-60 0 -109 32 -109 96c0 47 30 84 65 109z" />
    <glyph glyph-name="caron" unicode="&#x2c7;" horiz-adv-x="344" 
d="M140 552l-124 138h77l77 -89l78 89h80l-127 -138h-61z" />
    <glyph glyph-name="dotlessi" unicode="&#x131;" horiz-adv-x="242" 
d="M166 0h-90v474h90v-474z" />
    <glyph glyph-name="grave" unicode="`" horiz-adv-x="198" 
d="M122 555l-103 165h82l79 -165h-58z" />
    <glyph glyph-name="circumflex" unicode="&#x2c6;" horiz-adv-x="363" 
d="M30 551l127 157h55l124 -157h-76l-75 100l-77 -100h-78z" />
    <glyph glyph-name="dieresis" unicode="&#xa8;" horiz-adv-x="354" 
d="M32 622c0 29 21 54 52 54s52 -23 52 -54s-20 -55 -52 -55c-31 0 -52 24 -52 55zM218 622c0 29 21 54 52 54s52 -23 52 -54s-20 -55 -52 -55s-52 24 -52 55z" />
    <glyph glyph-name="acute" unicode="&#xb4;" horiz-adv-x="235" 
d="M211 712l-115 -161h-66l86 161h95z" />
    <glyph glyph-name="cedilla" unicode="&#xb8;" horiz-adv-x="286" 
d="M91 -78l36 78h56l-24 -48c41 -3 89 -21 89 -70c0 -62 -61 -82 -113 -82c-27 0 -54 4 -78 13l13 44c17 -6 35 -9 54 -9c25 0 56 4 56 36c0 38 -63 38 -89 38z" />
    <glyph glyph-name="fi" unicode="&#xfb01;" horiz-adv-x="604" 
d="M15 408v66h81v63c0 99 36 178 152 178h124v-70h-100c-68 0 -86 -46 -86 -106v-65h342v-474h-90v408h-252v-408h-90v408h-81z" />
    <glyph glyph-name="fl" unicode="&#xfb02;" horiz-adv-x="643" 
d="M15 408v66h81c0 116 -1 241 152 241h255v-573c0 -67 39 -72 87 -72h29v-70h-64c-87 0 -142 34 -142 127v518h-141c-83 0 -86 -67 -86 -129v-42h142v-66h-142v-408h-90v408h-81z" />
    <glyph glyph-name="agrave" unicode="&#xe0;" horiz-adv-x="480" 
d="M191 -9c-87 0 -157 49 -157 142c0 146 105 152 255 152h41v29c0 60 -31 98 -94 98c-49 0 -95 -17 -138 -40l-32 61c57 31 115 49 182 49c113 0 173 -62 173 -174v-308h-67l-12 56h-3c-37 -45 -91 -65 -148 -65zM269 224c-91 0 -142 -9 -142 -86c0 -56 39 -80 91 -80
c44 0 91 26 112 65v101h-61zM160 720h82l79 -165h-58z" />
    <glyph glyph-name="aacute" unicode="&#xe1;" horiz-adv-x="480" 
d="M34 133c0 146 105 152 255 152h41v29c0 60 -31 98 -94 98c-49 0 -95 -17 -138 -40l-32 61c57 31 115 49 182 49c113 0 173 -62 173 -174v-308h-67l-12 56h-3c-37 -45 -91 -65 -148 -65c-87 0 -157 49 -157 142zM127 138c0 -56 39 -80 91 -80c44 0 91 26 112 65v101h-61
c-91 0 -142 -9 -142 -86zM216 551h-66l86 161h95z" />
    <glyph glyph-name="acircumflex" unicode="&#xe2;" horiz-adv-x="480" 
d="M191 -9c-87 0 -157 49 -157 142c0 146 105 152 255 152h41v29c0 60 -31 98 -94 98c-49 0 -95 -17 -138 -40l-32 61c57 31 115 49 182 49c113 0 173 -62 173 -174v-308h-67l-12 56h-3c-37 -45 -91 -65 -148 -65zM127 138c0 -56 39 -80 91 -80c44 0 91 26 112 65v101h-61
c-91 0 -142 -9 -142 -86zM165 551h-78l127 157h55l124 -157h-76l-75 100z" />
    <glyph glyph-name="atilde" unicode="&#xe3;" horiz-adv-x="480" 
d="M34 133c0 146 105 152 255 152h41v29c0 60 -31 98 -94 98c-49 0 -95 -17 -138 -40l-32 61c57 31 115 49 182 49c113 0 173 -62 173 -174v-308h-67l-12 56h-3c-37 -45 -91 -65 -148 -65c-87 0 -157 49 -157 142zM269 224c-91 0 -142 -9 -142 -86c0 -56 39 -80 91 -80
c44 0 91 26 112 65v101h-61zM89 579c0 59 17 116 86 116c48 0 82 -45 118 -50c4 -1 7 -1 11 -1c32 0 37 28 37 55h51c0 -60 -13 -114 -83 -114c-61 0 -96 52 -131 52c-33 0 -37 -32 -37 -58h-52z" />
    <glyph glyph-name="adieresis" unicode="&#xe4;" horiz-adv-x="480" 
d="M191 -9c-87 0 -157 49 -157 142c0 146 105 152 255 152h41v29c0 60 -31 98 -94 98c-49 0 -95 -17 -138 -40l-32 61c57 31 115 49 182 49c113 0 173 -62 173 -174v-308h-67l-12 56h-3c-37 -45 -91 -65 -148 -65zM269 224c-91 0 -142 -9 -142 -86c0 -56 39 -80 91 -80
c44 0 91 26 112 65v101h-61zM281 622c0 29 21 54 52 54s52 -23 52 -54s-20 -55 -52 -55s-52 24 -52 55zM147 676c31 0 52 -23 52 -54s-20 -55 -52 -55c-31 0 -52 24 -52 55c0 29 21 54 52 54z" />
    <glyph glyph-name="aring" unicode="&#xe5;" horiz-adv-x="480" 
d="M34 133c0 146 105 152 255 152h41v29c0 60 -31 98 -94 98c-49 0 -95 -17 -138 -40l-32 61c57 31 115 49 182 49c113 0 173 -62 173 -174v-308h-67l-12 56h-3c-37 -45 -91 -65 -148 -65c-87 0 -157 49 -157 142zM127 138c0 -56 39 -80 91 -80c44 0 91 26 112 65v101h-61
c-91 0 -142 -9 -142 -86zM240 710c56 0 97 -28 97 -87c0 -56 -44 -87 -97 -87c-52 0 -97 32 -97 87c0 57 42 87 97 87zM193 623c0 -31 16 -51 47 -51s47 20 47 51c0 29 -16 51 -47 51s-47 -22 -47 -51z" />
    <glyph glyph-name="ae" unicode="&#xe6;" horiz-adv-x="782" 
d="M34 133c0 127 126 152 242 152h58v29c0 59 -30 98 -98 98c-47 0 -91 -15 -138 -40l-32 61c56 31 112 49 180 49c64 0 116 -27 143 -79h2c36 53 94 79 157 79c6 0 11 -1 17 -2c108 -7 176 -86 179 -210v-46h-325c0 -104 53 -165 161 -165c47 0 88 9 123 24l18 -65
c-39 -17 -90 -27 -147 -27c-79 0 -148 24 -195 84h-2c-40 -55 -98 -84 -178 -84c-96 0 -165 54 -165 142zM267 223c-70 0 -140 -21 -140 -85c0 -60 46 -80 97 -80s99 31 124 72c-11 29 -16 61 -17 94c-21 0 -43 -1 -64 -1zM545 415c-75 0 -116 -57 -124 -130h230
c0 67 -31 130 -106 130z" />
    <glyph glyph-name="ccedilla" unicode="&#xe7;" horiz-adv-x="443" 
d="M206 0c-105 27 -168 114 -168 236c0 145 96 246 242 246c48 0 88 -6 131 -29l-20 -65c-31 17 -64 26 -98 26c-105 0 -163 -75 -163 -175c0 -104 52 -182 163 -182c36 0 70 8 102 24l17 -61c-39 -21 -88 -29 -132 -29c-11 0 -21 1 -32 2l-20 -41c41 -3 89 -21 89 -70
c0 -62 -61 -82 -113 -82c-27 0 -54 4 -78 13l13 44c17 -6 35 -9 54 -9c25 0 56 4 56 36c0 38 -63 38 -89 38l36 78h10z" />
    <glyph glyph-name="dcroat" unicode="&#x111;" horiz-adv-x="531" 
d="M38 236c0 137 71 246 218 246c43 0 88 -12 119 -40v164h-100v55h100v51h91v-51h50v-55h-50v-606h-66l-10 47h-4c-33 -43 -85 -56 -137 -56c-139 0 -211 118 -211 245zM277 414c-107 0 -147 -80 -147 -175c0 -91 38 -180 143 -180c40 0 81 17 102 53v255
c-23 29 -62 47 -98 47z" />
    <glyph glyph-name="egrave" unicode="&#xe8;" horiz-adv-x="493" 
d="M455 220h-325v-10c0 -99 66 -151 161 -151c43 0 84 7 123 24l18 -65c-47 -20 -101 -27 -150 -27c-153 0 -244 91 -244 243c0 136 78 248 222 248c88 0 149 -44 178 -117c19 -47 17 -90 17 -145zM132 285h230c0 67 -31 130 -106 130c-77 0 -116 -61 -124 -130zM269 555
l-103 165h82l79 -165h-58z" />
    <glyph glyph-name="eacute" unicode="&#xe9;" horiz-adv-x="493" 
d="M455 220h-325v-10c0 -99 66 -151 161 -151c43 0 84 7 123 24l18 -65c-47 -20 -101 -27 -150 -27c-153 0 -244 91 -244 243c0 136 78 248 222 248c88 0 149 -44 178 -117c19 -47 17 -90 17 -145zM132 285h230c0 67 -31 130 -106 130c-77 0 -116 -61 -124 -130zM337 712
l-115 -161h-66l86 161h95z" />
    <glyph glyph-name="ecircumflex" unicode="&#xea;" horiz-adv-x="493" 
d="M282 -9c-153 0 -244 91 -244 243c0 136 78 248 222 248c88 0 149 -44 178 -117c19 -47 17 -90 17 -145h-325v-10c0 -99 66 -151 161 -151c43 0 84 7 123 24l18 -65c-47 -20 -101 -27 -150 -27zM132 285h230c0 67 -31 130 -106 130c-77 0 -116 -61 -124 -130zM94 551
l127 157h55l124 -157h-76l-75 100l-77 -100h-78z" />
    <glyph glyph-name="edieresis" unicode="&#xeb;" horiz-adv-x="493" 
d="M455 220h-325v-10c0 -99 66 -151 161 -151c43 0 84 7 123 24l18 -65c-47 -20 -101 -27 -150 -27c-153 0 -244 91 -244 243c0 136 78 248 222 248c88 0 149 -44 178 -117c19 -47 17 -90 17 -145zM132 285h230c0 67 -31 130 -106 130c-77 0 -116 -61 -124 -130zM102 622
c0 -31 21 -55 52 -55c32 0 52 24 52 55s-21 54 -52 54s-52 -25 -52 -54zM288 622c0 -31 20 -55 52 -55s52 24 52 55s-21 54 -52 54s-52 -25 -52 -54z" />
    <glyph glyph-name="igrave" unicode="&#xec;" horiz-adv-x="242" 
d="M166 0h-90v474h90v-474zM144 555l-103 165h82l79 -165h-58z" />
    <glyph glyph-name="iacute" unicode="&#xed;" horiz-adv-x="242" 
d="M166 0h-90v474h90v-474zM212 712l-115 -161h-66l86 161h95z" />
    <glyph glyph-name="icircumflex" unicode="&#xee;" horiz-adv-x="242" 
d="M76 474h90v-474h-90v474zM46 551h-78l127 157h55l124 -157h-76l-75 100z" />
    <glyph glyph-name="idieresis" unicode="&#xef;" horiz-adv-x="242" 
d="M166 0h-90v474h90v-474zM-24 622c0 -31 21 -55 52 -55c32 0 52 24 52 55s-21 54 -52 54s-52 -25 -52 -54zM162 622c0 -31 20 -55 52 -55s52 24 52 55s-21 54 -52 54s-52 -25 -52 -54z" />
    <glyph glyph-name="Agrave" unicode="&#xc0;" horiz-adv-x="611" 
d="M119 0h-97l236 630h96l234 -630h-98l-59 166h-254zM200 235h207c-35 101 -69 200 -101 303h-2c-35 -103 -69 -202 -104 -303zM225 920h82l79 -165h-58z" />
    <glyph glyph-name="Aacute" unicode="&#xc1;" horiz-adv-x="611" 
d="M119 0h-97l236 630h96l234 -630h-98l-59 166h-254zM200 235h207c-35 101 -69 200 -101 303h-2c-35 -103 -69 -202 -104 -303zM215 751l86 161h95l-115 -161h-66z" />
    <glyph glyph-name="Acircumflex" unicode="&#xc2;" horiz-adv-x="611" 
d="M119 0h-97l236 630h96l234 -630h-98l-59 166h-254zM304 538c-35 -103 -69 -202 -104 -303h207c-35 101 -69 200 -101 303h-2zM231 751h-78l127 157h55l124 -157h-76l-75 100z" />
    <glyph glyph-name="Atilde" unicode="&#xc3;" horiz-adv-x="611" 
d="M22 0l236 630h96l234 -630h-98l-59 166h-254l-58 -166h-97zM200 235h207c-35 101 -69 200 -101 303h-2c-35 -103 -69 -202 -104 -303zM206 779h-52c0 59 17 116 86 116c48 0 82 -45 118 -50c4 -1 7 -1 11 -1c32 0 37 28 37 55h51c0 -60 -13 -114 -83 -114
c-61 0 -96 52 -131 52c-33 0 -37 -32 -37 -58z" />
    <glyph glyph-name="Adieresis" unicode="&#xc4;" horiz-adv-x="611" 
d="M119 0h-97l236 630h96l234 -630h-98l-59 166h-254zM200 235h207c-35 101 -69 200 -101 303h-2c-35 -103 -69 -202 -104 -303zM347 822c0 29 21 54 52 54s52 -23 52 -54s-20 -55 -52 -55s-52 24 -52 55zM213 876c31 0 52 -23 52 -54s-20 -55 -52 -55c-31 0 -52 24 -52 55
c0 29 21 54 52 54z" />
    <glyph glyph-name="Aring" unicode="&#xc5;" horiz-adv-x="611" 
d="M119 0h-97l236 630h96l234 -630h-98l-59 166h-254zM200 235h207c-35 101 -69 200 -101 303h-2c-35 -103 -69 -202 -104 -303zM306 910c56 0 97 -28 97 -87c0 -56 -44 -87 -97 -87c-52 0 -97 32 -97 87c0 57 42 87 97 87zM306 772c31 0 47 20 47 51c0 29 -16 51 -47 51
s-47 -22 -47 -51c0 -31 16 -51 47 -51z" />
    <glyph glyph-name="AE" unicode="&#xc6;" horiz-adv-x="806" 
d="M19 0l270 630h474v-72h-280v-197h254v-71h-254v-218h283v-72h-375v168h-203l-68 -168h-101zM217 239h174v323l-65 -36c-36 -96 -72 -191 -109 -287z" />
    <glyph glyph-name="Ccedilla" unicode="&#xc7;" horiz-adv-x="547" 
d="M267 0c-145 33 -231 155 -231 315c0 191 118 325 313 325c60 0 113 -8 168 -37l-21 -68c-42 22 -87 33 -134 33c-155 0 -229 -108 -229 -253c0 -143 75 -253 227 -253c47 0 92 8 135 31l20 -69c-49 -27 -110 -33 -165 -33c-17 0 -33 1 -49 3l-21 -42c41 -3 89 -21 89 -70
c0 -62 -61 -82 -113 -82c-27 0 -54 4 -78 13l13 44c17 -6 35 -9 54 -9c25 0 56 4 56 36c0 38 -63 38 -89 38l36 78h19z" />
    <glyph glyph-name="Egrave" unicode="&#xc8;" horiz-adv-x="501" 
d="M461 0h-387v630h384v-72h-292v-197h266v-71h-266v-218h295v-72zM170 920h82l79 -165h-58z" />
    <glyph glyph-name="Eacute" unicode="&#xc9;" horiz-adv-x="501" 
d="M461 0h-387v630h384v-72h-292v-197h266v-71h-266v-218h295v-72zM160 751l86 161h95l-115 -161h-66z" />
    <glyph glyph-name="Ecircumflex" unicode="&#xca;" horiz-adv-x="501" 
d="M461 0h-387v630h384v-72h-292v-197h266v-71h-266v-218h295v-72zM176 751h-78l127 157h55l124 -157h-76l-75 100z" />
    <glyph glyph-name="Edieresis" unicode="&#xcb;" horiz-adv-x="501" 
d="M74 630h384v-72h-292v-197h266v-71h-266v-218h295v-72h-387v630zM292 822c0 29 21 54 52 54s52 -23 52 -54s-20 -55 -52 -55s-52 24 -52 55zM158 876c31 0 52 -23 52 -54s-20 -55 -52 -55c-31 0 -52 24 -52 55c0 29 21 54 52 54z" />
    <glyph glyph-name="Igrave" unicode="&#xcc;" horiz-adv-x="241" 
d="M74 630h92v-630h-92v630zM143 755l-103 165h82l79 -165h-58z" />
    <glyph glyph-name="Iacute" unicode="&#xcd;" horiz-adv-x="241" 
d="M74 630h92v-630h-92v630zM211 912l-115 -161h-66l86 161h95z" />
    <glyph glyph-name="Icircumflex" unicode="&#xce;" horiz-adv-x="241" 
d="M74 0v630h92v-630h-92zM-33 751l128 157h55l124 -157h-76l-75 100l-77 -100h-79z" />
    <glyph glyph-name="Idieresis" unicode="&#xcf;" horiz-adv-x="241" 
d="M74 630h92v-630h-92v630zM-25 822c0 -31 22 -55 53 -55c32 0 52 24 52 55s-21 54 -52 54s-53 -25 -53 -54zM162 822c0 -31 20 -55 52 -55s52 24 52 55s-21 54 -52 54s-52 -25 -52 -54z" />
    <glyph glyph-name="Ntilde" unicode="&#xd1;" horiz-adv-x="642" 
d="M74 630h86c80 -120 179 -265 259 -398c23 -35 44 -70 64 -105h2c-7 101 -4 203 -4 304v199h86v-630h-86c-84 125 -175 254 -254 387c-25 40 -48 83 -69 126h-2c4 -108 4 -213 4 -320v-193h-86v630zM222 779h-52c0 59 17 116 86 116c48 0 82 -45 118 -50c4 -1 7 -1 11 -1
c32 0 37 28 37 55h51c0 -60 -13 -114 -83 -114c-61 0 -96 52 -131 52c-33 0 -37 -32 -37 -58z" />
    <glyph glyph-name="Ograve" unicode="&#xd2;" horiz-adv-x="672" 
d="M338 640c192 0 291 -146 291 -325s-107 -324 -295 -324c-192 0 -291 144 -291 324c0 178 106 325 295 325zM139 315c0 -124 57 -253 199 -253c141 0 194 131 194 253c0 125 -54 254 -198 254c-141 0 -195 -133 -195 -254zM359 755l-103 165h82l79 -165h-58z" />
    <glyph glyph-name="Oacute" unicode="&#xd3;" horiz-adv-x="672" 
d="M338 640c192 0 291 -146 291 -325s-107 -324 -295 -324c-192 0 -291 144 -291 324c0 178 106 325 295 325zM139 315c0 -124 57 -253 199 -253c141 0 194 131 194 253c0 125 -54 254 -198 254c-141 0 -195 -133 -195 -254zM427 912l-115 -161h-66l86 161h95z" />
    <glyph glyph-name="Ocircumflex" unicode="&#xd4;" horiz-adv-x="672" 
d="M43 315c0 178 106 325 295 325c192 0 291 -146 291 -325s-107 -324 -295 -324c-192 0 -291 144 -291 324zM139 315c0 -124 57 -253 199 -253c141 0 194 131 194 253c0 125 -54 254 -198 254c-141 0 -195 -133 -195 -254zM261 751h-78l127 157h55l124 -157h-76l-75 100z
" />
    <glyph glyph-name="Otilde" unicode="&#xd5;" horiz-adv-x="672" 
d="M338 640c192 0 291 -146 291 -325s-107 -324 -295 -324c-192 0 -291 144 -291 324c0 178 106 325 295 325zM139 315c0 -124 57 -253 199 -253c141 0 194 131 194 253c0 125 -54 254 -198 254c-141 0 -195 -133 -195 -254zM237 779h-52c0 59 17 116 86 116
c48 0 82 -45 118 -50c11 -2 19 -1 26 2c20 7 22 31 22 52h51c0 -60 -13 -114 -83 -114c-61 0 -96 52 -131 52c-33 0 -37 -32 -37 -58z" />
    <glyph glyph-name="Odieresis" unicode="&#xd6;" horiz-adv-x="672" 
d="M338 640c192 0 291 -146 291 -325s-107 -324 -295 -324c-192 0 -291 144 -291 324c0 178 106 325 295 325zM139 315c0 -124 57 -253 199 -253c141 0 194 131 194 253c0 125 -54 254 -198 254c-141 0 -195 -133 -195 -254zM191 822c0 -31 21 -55 52 -55c32 0 52 24 52 55
s-21 54 -52 54s-52 -25 -52 -54zM377 822c0 -31 20 -55 52 -55s52 24 52 55s-21 54 -52 54s-52 -25 -52 -54z" />
    <glyph glyph-name="Oslash" unicode="&#xd8;" horiz-adv-x="672" 
d="M43 315c0 178 106 325 295 325c30 0 57 -3 82 -10l26 72h67l-34 -95c99 -53 150 -164 150 -292c0 -179 -107 -324 -295 -324c-25 0 -49 2 -71 7l-35 -100h-68l43 120c-106 51 -160 164 -160 297zM139 315c0 -86 27 -174 91 -220l165 465c-18 6 -38 9 -61 9
c-141 0 -195 -133 -195 -254zM288 68c15 -4 32 -6 50 -6c141 0 194 131 194 253c0 82 -23 166 -80 214z" />
    <glyph glyph-name="OE" unicode="&#x152;" horiz-adv-x="823" 
d="M42 315c0 206 102 318 307 318c19 0 38 -1 57 -3h374v-72h-292v-197h266v-71h-266v-218h295v-72h-378c-20 -2 -40 -3 -59 -3c-207 0 -304 111 -304 318zM354 563c-153 0 -216 -98 -216 -248c0 -152 66 -247 220 -247c12 0 25 1 38 2c0 165 -1 326 -1 491
c-14 2 -28 2 -41 2z" />
    <glyph glyph-name="Scaron" unicode="&#x160;" horiz-adv-x="509" 
d="M44 464c0 125 104 176 215 176c63 0 121 -12 177 -40l-22 -69c-48 23 -95 38 -150 38c-61 0 -126 -25 -126 -94c0 -160 327 -87 327 -303c0 -129 -107 -181 -221 -181c-68 0 -135 12 -196 43l23 70c53 -27 107 -42 168 -42c64 0 132 22 132 99c0 156 -327 85 -327 303z
M99 890h77l77 -89l78 89h80l-127 -138h-61z" />
    <glyph glyph-name="Ugrave" unicode="&#xd9;" horiz-adv-x="634" 
d="M73 253v377h92v-377c0 -109 33 -191 157 -191c109 0 147 80 147 179v389h92v-382c0 -161 -71 -257 -239 -257c-171 0 -249 98 -249 262zM237 920h82l79 -165h-58z" />
    <glyph glyph-name="Uacute" unicode="&#xda;" horiz-adv-x="634" 
d="M73 253v377h92v-377c0 -109 33 -191 157 -191c109 0 147 80 147 179v389h92v-382c0 -161 -71 -257 -239 -257c-171 0 -249 98 -249 262zM293 751h-66l86 161h95z" />
    <glyph glyph-name="Ucircumflex" unicode="&#xdb;" horiz-adv-x="634" 
d="M73 253v377h92v-377c0 -109 33 -191 157 -191c109 0 147 80 147 179v389h92v-382c0 -161 -71 -257 -239 -257c-171 0 -249 98 -249 262zM242 751h-78l127 157h55l124 -157h-76l-75 100z" />
    <glyph glyph-name="Udieresis" unicode="&#xdc;" horiz-adv-x="634" 
d="M322 -9c-171 0 -249 98 -249 262v377h92v-377c0 -109 33 -191 157 -191c109 0 147 80 147 179v389h92v-382c0 -161 -71 -257 -239 -257zM410 876c31 0 52 -23 52 -54s-20 -55 -52 -55s-52 24 -52 55c0 29 21 54 52 54zM172 822c0 29 21 54 52 54s52 -23 52 -54
s-20 -55 -52 -55c-31 0 -52 24 -52 55z" />
    <glyph glyph-name="Ydieresis" unicode="&#x178;" horiz-adv-x="542" 
d="M13 630h105l158 -281l159 281h105l-220 -368v-262h-92v262zM312 822c0 29 21 54 52 54s52 -23 52 -54s-20 -55 -52 -55s-52 24 -52 55zM178 876c31 0 52 -23 52 -54s-20 -55 -52 -55c-31 0 -52 24 -52 55c0 29 21 54 52 54z" />
    <glyph glyph-name="Yacute" unicode="&#xdd;" horiz-adv-x="542" 
d="M228 262l-215 368h105l158 -281l159 281h105l-220 -368v-262h-92v262zM181 751l86 161h95l-115 -161h-66z" />
    <glyph glyph-name="Zcaron" unicode="&#x17d;" horiz-adv-x="522" 
d="M492 0h-466v58l341 501h-328v71h446v-53l-345 -506h352v-71zM229 752l-124 138h77l77 -89l78 89h80l-127 -138h-61z" />
    <glyph glyph-name="ntilde" unicode="&#xf1;" horiz-adv-x="538" 
d="M69 474h80v-63c47 44 98 71 162 71c103 0 158 -59 158 -160v-322h-90v308c0 64 -28 104 -96 104c-48 0 -93 -29 -124 -64v-348h-90v474zM118 579c0 59 17 116 86 116c48 0 82 -45 118 -50c4 -1 7 -1 11 -1c32 0 37 28 37 55h51c0 -60 -13 -114 -83 -114
c-61 0 -96 52 -131 52c-33 0 -37 -32 -37 -58h-52z" />
    <glyph glyph-name="ograve" unicode="&#xf2;" 
d="M490 241c0 -136 -81 -250 -227 -250c-143 0 -225 103 -225 240c0 140 82 251 229 251c145 0 223 -103 223 -241zM397 236c0 84 -35 178 -133 178c-100 0 -132 -94 -132 -178c0 -85 35 -177 134 -177c100 0 131 93 131 177zM287 555l-103 165h82l79 -165h-58z" />
    <glyph glyph-name="oacute" unicode="&#xf3;" 
d="M490 241c0 -136 -81 -250 -227 -250c-143 0 -225 103 -225 240c0 140 82 251 229 251c145 0 223 -103 223 -241zM397 236c0 84 -35 178 -133 178c-100 0 -132 -94 -132 -178c0 -85 35 -177 134 -177c100 0 131 93 131 177zM355 712l-115 -161h-66l86 161h95z" />
    <glyph glyph-name="ocircumflex" unicode="&#xf4;" 
d="M263 -9c-143 0 -225 103 -225 240c0 140 82 251 229 251c145 0 223 -103 223 -241c0 -136 -81 -250 -227 -250zM132 236c0 -85 35 -177 134 -177c100 0 131 93 131 177s-35 178 -133 178c-100 0 -132 -94 -132 -178zM111 551l127 157h55l124 -157h-76l-75 100l-77 -100
h-78z" />
    <glyph glyph-name="otilde" unicode="&#xf5;" 
d="M490 241c0 -136 -81 -250 -227 -250c-143 0 -225 103 -225 240c0 140 82 251 229 251c145 0 223 -103 223 -241zM397 236c0 84 -35 178 -133 178c-100 0 -132 -94 -132 -178c0 -85 35 -177 134 -177c100 0 131 93 131 177zM165 579h-52c0 59 17 116 86 116
c48 0 82 -45 118 -50c11 -2 19 -1 26 2c20 7 22 31 22 52h51c0 -60 -13 -114 -83 -114c-61 0 -96 52 -131 52c-33 0 -37 -32 -37 -58z" />
    <glyph glyph-name="odieresis" unicode="&#xf6;" 
d="M490 241c0 -136 -81 -250 -227 -250c-143 0 -225 103 -225 240c0 140 82 251 229 251c145 0 223 -103 223 -241zM397 236c0 84 -35 178 -133 178c-100 0 -132 -94 -132 -178c0 -85 35 -177 134 -177c100 0 131 93 131 177zM119 622c0 -31 21 -55 52 -55c32 0 52 24 52 55
s-21 54 -52 54s-52 -25 -52 -54zM305 622c0 -31 20 -55 52 -55s52 24 52 55s-21 54 -52 54s-52 -25 -52 -54z" />
    <glyph glyph-name="oslash" unicode="&#xf8;" 
d="M134 27c-62 42 -96 116 -96 204c0 140 82 251 229 251c10 0 19 0 28 -1l79 221h67l-84 -236c87 -34 133 -119 133 -225c0 -136 -81 -250 -227 -250c-26 0 -49 3 -71 9l-36 -102h-68zM216 68c15 -6 31 -9 50 -9c100 0 131 93 131 177c0 61 -18 126 -65 158zM164 112
l107 302c-105 0 -139 -86 -139 -178c0 -44 9 -90 32 -124z" />
    <glyph glyph-name="scaron" unicode="&#x161;" horiz-adv-x="415" 
d="M190 -9c-51 0 -102 7 -149 30l21 67c40 -19 81 -29 122 -29c44 0 99 14 99 66c0 109 -241 52 -241 220c0 94 85 137 170 137c47 0 97 -7 140 -27l-20 -66c-34 17 -71 25 -112 25c-39 0 -88 -13 -88 -61c0 -105 243 -46 243 -219c0 -103 -95 -143 -185 -143zM176 552
l-124 138h77l77 -89l78 89h80l-127 -138h-61z" />
    <glyph glyph-name="ugrave" unicode="&#xf9;" horiz-adv-x="539" 
d="M69 157v317h90v-306c0 -68 27 -108 99 -108c47 0 95 22 122 61v353h90v-474h-66l-10 56h-3c-43 -44 -98 -65 -159 -65c-107 0 -163 59 -163 166zM189 720h82l79 -165h-58z" />
    <glyph glyph-name="uacute" unicode="&#xfa;" horiz-adv-x="539" 
d="M69 157v317h90v-306c0 -68 27 -108 99 -108c47 0 95 22 122 61v353h90v-474h-66l-10 56h-3c-43 -44 -98 -65 -159 -65c-107 0 -163 59 -163 166zM179 551l86 161h95l-115 -161h-66z" />
    <glyph glyph-name="ucircumflex" unicode="&#xfb;" horiz-adv-x="539" 
d="M69 474h90v-306c0 -68 27 -108 99 -108c47 0 95 22 122 61v353h90v-474h-66l-10 56h-3c-43 -44 -98 -65 -159 -65c-107 0 -163 59 -163 166v317zM195 551h-78l127 157h55l124 -157h-76l-75 100z" />
    <glyph glyph-name="udieresis" unicode="&#xfc;" horiz-adv-x="539" 
d="M69 474h90v-306c0 -68 27 -108 99 -108c47 0 95 22 122 61v353h90v-474h-66l-10 56h-3c-43 -44 -98 -65 -159 -65c-107 0 -163 59 -163 166v317zM311 622c0 29 21 54 52 54s52 -23 52 -54s-20 -55 -52 -55s-52 24 -52 55zM177 676c31 0 52 -23 52 -54s-20 -55 -52 -55
c-31 0 -52 24 -52 55c0 29 21 54 52 54z" />
    <glyph glyph-name="yacute" unicode="&#xfd;" horiz-adv-x="472" 
d="M-6 -248v71h43c135 0 115 30 169 178l-196 473h97c48 -128 96 -254 139 -383h3c37 129 81 255 124 383h91l-194 -548c-60 -169 -64 -174 -239 -174h-37zM146 551l86 161h95l-115 -161h-66z" />
    <glyph glyph-name="ydieresis" unicode="&#xff;" horiz-adv-x="472" 
d="M-6 -177h43c135 0 115 30 169 178l-196 473h97c48 -128 96 -254 139 -383h3c37 129 81 255 124 383h91l-194 -548c-60 -169 -64 -174 -239 -174h-37v71zM277 622c0 29 21 54 52 54s52 -23 52 -54s-20 -55 -52 -55s-52 24 -52 55zM143 676c31 0 52 -23 52 -54
s-20 -55 -52 -55c-31 0 -52 24 -52 55c0 29 21 54 52 54z" />
    <glyph glyph-name="zcaron" unicode="&#x17e;" horiz-adv-x="415" 
d="M393 0h-370v58l259 348h-244v68h350v-54l-262 -352h267v-68zM176 552l-124 138h77l77 -89l78 89h80l-127 -138h-61z" />
    <glyph glyph-name="lslash" unicode="&#x142;" horiz-adv-x="302" 
d="M162 261h200v-61h-200v-58c0 -63 33 -72 84 -72h32v-70h-64c-87 0 -142 34 -142 127v73h-132v61h132v451h90v-451z" />
    <glyph glyph-name="Lslash" unicode="&#x141;" horiz-adv-x="450" 
d="M74 200h-59v61h59v369h92v-369h270v-61h-270v-128h273v-72h-365v200z" />
    <glyph glyph-name="germandbls" unicode="&#xdf;" horiz-adv-x="591" 
d="M163 0h-87v476c0 142 68 244 229 244c108 0 193 -60 193 -168c0 -29 -6 -57 -19 -82c-57 -11 -106 -33 -106 -86c0 -91 168 -125 168 -247c0 -95 -76 -146 -184 -146c-34 0 -91 7 -117 22l19 63c29 -11 61 -18 93 -18c56 0 98 26 98 81c0 87 -167 114 -167 241
c0 68 51 111 116 126c4 12 6 27 6 44c0 63 -45 102 -105 102c-102 0 -137 -78 -137 -190v-462z" />
    <glyph glyph-name="eth" unicode="&#xf0;" 
d="M246 457c55 0 106 -24 139 -64l3 1c-16 64 -67 146 -117 183l-120 -60l-21 39l102 52c-33 21 -70 36 -109 49l35 62c53 -17 108 -41 152 -73l96 49l23 -41l-82 -41c87 -77 141 -219 141 -358c0 -140 -71 -264 -226 -264c-125 0 -224 93 -224 233c0 132 80 233 208 233z
M263 389c-84 0 -133 -68 -133 -162c0 -100 46 -168 137 -168c86 0 130 84 130 169c0 86 -52 161 -134 161z" />
    <glyph glyph-name="Thorn" unicode="&#xde;" horiz-adv-x="504" 
d="M156 0h-86v630h86v-128c29 9 59 12 88 12c123 0 223 -71 223 -195c0 -147 -108 -212 -244 -212c-21 0 -46 2 -67 5v-112zM156 181c20 -5 40 -6 65 -6c88 0 156 45 156 137c0 90 -65 134 -148 134c-25 0 -52 -3 -73 -11v-254z" />
    <glyph glyph-name="thorn" unicode="&#xfe;" horiz-adv-x="529" 
d="M65 -165v877h87v-285c35 35 81 55 134 55c138 0 203 -103 203 -243c0 -133 -81 -248 -214 -248c-47 0 -88 7 -123 34v-190h-87zM153 96c21 -24 57 -38 92 -38c97 0 152 76 152 179c0 99 -41 175 -137 175c-44 0 -82 -26 -107 -54v-262z" />
    <glyph glyph-name="Eth" unicode="&#xd0;" horiz-adv-x="658" 
d="M26 292v66h82v272h201c191 0 307 -113 307 -301c0 -216 -133 -329 -338 -329h-170v292h-82zM200 292v-220h69c156 0 251 81 251 257c0 141 -88 229 -229 229h-91v-200h146v-66h-146z" />
    <glyph glyph-name="Dcroat" unicode="&#x110;" horiz-adv-x="658" 
d="M26 292v66h82v272h201c191 0 307 -113 307 -301c0 -216 -133 -329 -338 -329h-170v292h-82zM200 292v-220h69c156 0 251 81 251 257c0 141 -88 229 -229 229h-91v-200h146v-66h-146z" />
    <glyph glyph-name="oe" unicode="&#x153;" horiz-adv-x="847" 
d="M811 220h-325v-10c0 -96 60 -151 161 -151c47 0 88 9 123 24l18 -65c-39 -17 -91 -27 -151 -27c-85 0 -161 33 -198 106c-35 -69 -95 -106 -176 -106c-140 0 -225 100 -225 240c0 144 86 251 228 251c79 0 145 -38 178 -106c33 68 93 106 172 106c84 0 147 -42 176 -115
c19 -45 19 -90 19 -147zM397 236c0 99 -45 178 -133 178c-89 0 -132 -75 -132 -178c0 -100 44 -177 134 -177s131 76 131 177zM488 285h230c0 67 -31 130 -106 130s-116 -57 -124 -130z" />
  </font>
</defs>
</svg>
